<svg fill="none" height="50" viewBox="0 0 50 50" width="50" xmlns="http://www.w3.org/2000/svg" xmlns:xlink="http://www.w3.org/1999/xlink"><clipPath id="a"><path d="m11 8h28v34.7407h-28z"/></clipPath><mask id="b" height="42" maskUnits="userSpaceOnUse" width="42" x="4" y="3"><path d="m25 44.8148c11.4548 0 20.7407-9.2859 20.7407-20.7407s-9.2859-20.74079-20.7407-20.74079-20.74074 9.28599-20.74074 20.74079 9.28594 20.7407 20.74074 20.7407z" fill="#fff"/></mask><circle cx="25" cy="25" fill="#f4fffc" r="25"/><g clip-path="url(#a)"><g fill="#5b63fe" mask="url(#b)"><path d="m39 42.7407c0-.3111-.2074-.5185-.5185-.5185h-.5704c-.1555-1.2445-.9852-2.2815-2.0741-2.8-.3629-1.9704-2.074-3.4222-4.0963-3.4222-1.3481 0-2.5407.674-3.3185 1.6592-.4148-.3111-.8815-.5185-1.3481-.5704v-4.7185c0-.3111-.2074-.5185-.5185-.5185-.3112 0-.5186.2074-.5186.5185v5.1852c0 .3111.2074.5185.5186.5185.5185 0 .9851.2074 1.3481.5185-.2074.4667-.3111.9852-.3111 1.5556 0 .2074 0 .4148.0518.6222.0519.2593.2593.4667.5186.4667.3629-.0519.5703-.3111.5185-.5704 0-.1555-.0519-.3111-.0519-.4666 0-1.7112 1.4-3.1112 3.1111-3.1112 1.3482 0 2.4889.8815 2.9556 2.0741-.1037 0-.2074 0-.363 0-.8814 0-1.7629.3111-2.437.9334-.2074.2074-.2074.5185-.0519.7259.2075.2074.5186.2074.726.0518.4666-.4148 1.0889-.674 1.7111-.674 1.2444 0 2.2815.8814 2.5407 2.074zm-25.8741-.5185c.2593-1.1926 1.2963-2.0741 2.5408-2.0741.674 0 1.2963.2593 1.8148.7259.2074.2074.5185.2074.7259 0s.2074-.5185 0-.7259c-.6741-.6741-1.5555-1.037-2.5407-1.037-.1037 0-.2074 0-.363 0 .4148-1.2445 1.5556-2.0741 2.9556-2.0741 1.037 0 2.0222.5185 2.5926 1.4-.3112.4667-.5186 1.0889-.5186 1.7111 0 .3111.2074.5185.5186.5185.3111 0 .5185-.2074.5185-.5185 0-1.1407.9333-2.0741 2.074-2.0741.3112 0 .5186-.2074.5186-.5185v-5.1852c0-.3111-.2074-.5185-.5186-.5185-.3111 0-.5185.2074-.5185.5185v4.7185c-.5185.1037-.9333.3112-1.3481.5704-.7778-1.037-2.0222-1.6592-3.3185-1.6592-2.0223 0-3.7334 1.4518-4.0963 3.4222-1.0889.5185-1.9186 1.5555-2.0741 2.8h-.5704c-.3111 0-.5185.2074-.5185.5185"/><path d="m36.7185 27.8074-6.5333-4.5111c.3111-1.6593.5185-3.5259.5185-5.4445 0-6.4296-5.237-9.64441-5.4444-9.79996-.1556-.10371-.363-.10371-.5186 0-.2074.15555-5.4444 3.37036-5.4444 9.79996 0 1.9186.2074 3.7852.5185 5.4445l-6.5333 4.5111c-.1556.1037-.2593.363-.2074.5704l.5185 2.074c.0519.2074.2593.363.5185.363h6.2222c.3112 0 .5186-.2074.5186-.5185s-.2074-.5185-.5186-.5185h-5.8074l-.3111-1.3482 1.1926-.8296.2593 1.2444c.0518.2593.2592.4148.5185.4148h.1037c.2593-.0518.4667-.3629.363-.6222l-.4149-1.6074 3.7334-2.5926c.7778 3.526 1.8666 5.963 1.9185 6.1185.1037.2075.2593.3112.4667.3112h5.1851c.2075 0 .363-.1037.4667-.3112.0519-.1555 1.1408-2.5925 1.9185-6.1185l3.7334 2.5926-.363 1.6074c-.0519.2593.1037.5704.363.6222h.1037c.2074 0 .4666-.1555.5185-.4148l.3111-1.2444 1.1926.8296-.3111 1.3482h-5.8074c-.3111 0-.5185.2074-.5185.5185s.2074.5185.5185.5185h6.2222c.2593 0 .4667-.1556.5185-.4148l.5185-2.0741c.0519-.2074-.0518-.4148-.2074-.5185zm-11.7185-18.66667c.6741.46666 2.4889 1.97037 3.6815 4.35557-.9852-.8296-2.2815-1.3482-3.6815-1.3482s-2.6963.5186-3.6815 1.3482c1.1926-2.3852 3.0074-3.88891 3.6815-4.35557zm4.6667 8.71107c0 2.5926-2.0741 4.6667-4.6667 4.6667s-4.6667-2.0741-4.6667-4.6667 2.0741-4.6666 4.6667-4.6666 4.6667 2.074 4.6667 4.6666zm-2.4371 11.926h-4.5111c-.1037-.2074-.2592-.5704-.4148-1.0371h2.1778c.3111 0 .5185-.2074.5185-.5185s-.2074-.5185-.5185-.5185h-2.4889c-.5185-1.5556-1.0889-3.7333-1.4-6.2741 1.037 1.2963 2.6444 2.1259 4.4074 2.1259s3.3704-.8296 4.4074-2.1259c-.5185 4.0963-1.7629 7.363-2.1778 8.3482z"/><path d="m24.7407 14.7407v.7259c-.3629.0519-.6222.2075-.8296.4667-.2074.2593-.3111.5185-.3111.8815 0 .2074.0519.4148.1556.5704.1037.1555.2074.2592.3629.4148.1556.1037.3111.2074.4667.3111.1555.1037.3111.1555.4667.2593.1555.1037.2592.1555.3629.2592.1037 0 .1037.1037.1037.2593 0 .1555-.0518.3111-.1555.3629-.1037.1037-.2593.1037-.4667.1037-.1556 0-.363-.0518-.5185-.1037-.1556-.0518-.363-.1555-.5185-.3111l-.4149.7259c.1556.1556.363.2593.6223.363.2592.1037.4666.1556.674.1556v.7777h.726v-.7777c.3629-.1037.674-.2593.8296-.5186.1555-.2592.2593-.5703.2593-.8814 0-.2074-.0519-.4148-.1556-.5704s-.2074-.3111-.363-.4148c-.1555-.1037-.3111-.2074-.4666-.2593-.1556-.0518-.3111-.1555-.4667-.2074-.1556-.0518-.2593-.1555-.363-.2074-.1037-.1037-.1555-.1555-.1555-.3111s.0518-.2593.1555-.363c.1037-.0518.2074-.1037.4149-.1037.1555 0 .3111.0519.4148.1037.1037.0519.2592.1556.3629.2593l.5185-.6222c-.1555-.1556-.3111-.2593-.4666-.363-.1556-.1037-.363-.1555-.6222-.2074v-.7778z"/></g></g></svg>